<?xml version="1.0" encoding="UTF-8"?>
<!DOCTYPE svg PUBLIC "-//W3C//DTD SVG 1.1//EN" "http://www.w3.org/Graphics/SVG/1.1/DTD/svg11.dtd">
<svg xmlns="http://www.w3.org/2000/svg" version="1.1" width="512px" height="512px" style="shape-rendering:geometricPrecision; text-rendering:geometricPrecision; image-rendering:optimizeQuality; fill-rule:evenodd; clip-rule:evenodd" xmlns:xlink="http://www.w3.org/1999/xlink">
<g><path style="opacity:0.958" fill="#000000" d="M 92.5,2.5 C 97.3755,3.06907 101.709,4.90241 105.5,8C 129.667,32.1667 153.833,56.3333 178,80.5C 185.699,92.0621 183.532,101.229 171.5,108C 166.56,109.041 161.894,108.374 157.5,106C 141.667,90.1667 125.833,74.3333 110,58.5C 109.333,189.5 109.333,320.5 110,451.5C 125.5,436 141,420.5 156.5,405C 163.167,401.667 169.833,401.667 176.5,405C 183.497,412.135 184.33,419.968 179,428.5C 153.833,453.667 128.667,478.833 103.5,504C 97.3528,508.193 91.0195,508.526 84.5,505C 58.3333,478.833 32.1667,452.667 6,426.5C 0.925897,409.809 7.09256,401.642 24.5,402C 26.5,403 28.5,404 30.5,405C 45.6667,420.167 60.8333,435.333 76,450.5C 76.6667,320.167 76.6667,189.833 76,59.5C 60.1381,75.6957 43.9715,91.5291 27.5,107C 14.0443,111.108 6.04433,106.275 3.5,92.5C 3.96925,88.9257 5.13592,85.5924 7,82.5C 32.8333,56.6667 58.6667,30.8333 84.5,5C 87.3102,4.21774 89.9768,3.38441 92.5,2.5 Z"/></g>
<g><path style="opacity:0.978" fill="#000000" d="M 219.5,42.5 C 311.834,42.3333 404.167,42.5 496.5,43C 503.965,45.4085 507.965,50.5752 508.5,58.5C 507.896,65.8854 504.229,71.0521 497.5,74C 404.5,74.6667 311.5,74.6667 218.5,74C 207.551,68.0455 205.051,59.5455 211,48.5C 213.322,45.6047 216.155,43.6047 219.5,42.5 Z"/></g>
<g><path style="opacity:0.949" fill="#000000" d="M 221.5,140.5 C 274.834,140.333 328.168,140.5 381.5,141C 390.402,142.571 395.068,147.905 395.5,157C 395.185,165.645 390.851,170.978 382.5,173C 328.5,173.667 274.5,173.667 220.5,173C 212.628,170.612 208.295,165.279 207.5,157C 208.35,148.071 213.017,142.571 221.5,140.5 Z"/></g>
<g><path style="opacity:0.977" fill="#000000" d="M 218.5,239.5 C 294.167,239.333 369.834,239.5 445.5,240C 454.85,243.663 458.35,250.497 456,260.5C 454.5,266 451,269.5 445.5,271C 369.833,271.667 294.167,271.667 218.5,271C 207.539,264.991 205.039,256.491 211,245.5C 213.114,242.879 215.614,240.879 218.5,239.5 Z"/></g>
<g><path style="opacity:0.947" fill="#000000" d="M 220.5,337.5 C 253.168,337.333 285.835,337.5 318.5,338C 328.907,340.975 333.074,347.809 331,358.5C 329.092,364.74 324.925,368.573 318.5,370C 286.167,370.667 253.833,370.667 221.5,370C 212.911,368.183 208.244,362.849 207.5,354C 208.407,345.638 212.74,340.138 220.5,337.5 Z"/></g>
<g><path style="opacity:0.978" fill="#000000" d="M 218.5,436.5 C 311.501,436.333 404.501,436.5 497.5,437C 508.06,443.133 510.56,451.633 505,462.5C 502.559,464.969 499.726,466.802 496.5,468C 404.167,468.667 311.833,468.667 219.5,468C 212.037,465.596 208.037,460.43 207.5,452.5C 208.208,445.07 211.875,439.736 218.5,436.5 Z"/></g>
</svg>
